<mxfile host="app.diagrams.net" modified="2023-07-05T06:58:05.906Z" agent="Mozilla/5.0 (X11; Ubuntu; Linux x86_64; rv:109.0) Gecko/20100101 Firefox/114.0" etag="7KdMICKHaHRspsh9u_v2" version="21.5.2" type="github">
  <diagram name="Seite-1" id="GQNFSpxZyi9aB66WynnB">
    <mxGraphModel dx="3110" dy="2405" grid="1" gridSize="10" guides="1" tooltips="1" connect="1" arrows="1" fold="1" page="1" pageScale="1" pageWidth="827" pageHeight="1169" math="0" shadow="0">
      <root>
        <mxCell id="0" />
        <mxCell id="1" parent="0" />
        <mxCell id="FiCaPtrMLuWlpLasM4BH-40" value="" style="rounded=0;whiteSpace=wrap;html=1;fillColor=#FFE599;strokeColor=#b85450;" parent="1" vertex="1">
          <mxGeometry x="615" y="760" width="155" height="90" as="geometry" />
        </mxCell>
        <mxCell id="FiCaPtrMLuWlpLasM4BH-39" value="" style="rounded=0;whiteSpace=wrap;html=1;fillColor=#FFE599;strokeColor=#b85450;" parent="1" vertex="1">
          <mxGeometry x="625" y="470" width="170" height="110" as="geometry" />
        </mxCell>
        <mxCell id="FiCaPtrMLuWlpLasM4BH-38" value="" style="rounded=0;whiteSpace=wrap;html=1;fillColor=#f8cecc;strokeColor=#b85450;" parent="1" vertex="1">
          <mxGeometry x="360" y="355" width="180" height="515" as="geometry" />
        </mxCell>
        <mxCell id="FiCaPtrMLuWlpLasM4BH-37" value="" style="rounded=0;whiteSpace=wrap;html=1;fillColor=#FFE599;strokeColor=#b85450;" parent="1" vertex="1">
          <mxGeometry x="-265" y="370" width="140" height="80" as="geometry" />
        </mxCell>
        <mxCell id="FiCaPtrMLuWlpLasM4BH-36" value="" style="rounded=0;whiteSpace=wrap;html=1;fillColor=#FFE599;strokeColor=#b85450;" parent="1" vertex="1">
          <mxGeometry x="30" y="250" width="140" height="80" as="geometry" />
        </mxCell>
        <mxCell id="FiCaPtrMLuWlpLasM4BH-35" value="" style="rounded=0;whiteSpace=wrap;html=1;fillColor=#FFE599;strokeColor=#b85450;" parent="1" vertex="1">
          <mxGeometry x="-280" y="130" width="170" height="210" as="geometry" />
        </mxCell>
        <mxCell id="FiCaPtrMLuWlpLasM4BH-43" style="edgeStyle=orthogonalEdgeStyle;rounded=0;orthogonalLoop=1;jettySize=auto;html=1;exitX=0.5;exitY=1;exitDx=0;exitDy=0;entryX=0.5;entryY=0;entryDx=0;entryDy=0;" parent="1" source="FiCaPtrMLuWlpLasM4BH-1" target="FiCaPtrMLuWlpLasM4BH-41" edge="1">
          <mxGeometry relative="1" as="geometry" />
        </mxCell>
        <mxCell id="FiCaPtrMLuWlpLasM4BH-1" value="Nutzer wÃ¤hlt in Dropdown 3rd Party App aus" style="rounded=1;whiteSpace=wrap;html=1;" parent="1" vertex="1">
          <mxGeometry x="-250" y="160" width="120" height="60" as="geometry" />
        </mxCell>
        <mxCell id="FiCaPtrMLuWlpLasM4BH-3" style="edgeStyle=orthogonalEdgeStyle;rounded=0;orthogonalLoop=1;jettySize=auto;html=1;exitX=0.5;exitY=1;exitDx=0;exitDy=0;exitPerimeter=0;" parent="1" source="FiCaPtrMLuWlpLasM4BH-2" target="FiCaPtrMLuWlpLasM4BH-1" edge="1">
          <mxGeometry relative="1" as="geometry" />
        </mxCell>
        <mxCell id="FiCaPtrMLuWlpLasM4BH-2" value="" style="verticalLabelPosition=bottom;verticalAlign=top;html=1;shape=mxgraph.flowchart.on-page_reference;fillColor=#1F1F1F;" parent="1" vertex="1">
          <mxGeometry x="-205" y="40" width="30" height="30" as="geometry" />
        </mxCell>
        <mxCell id="FiCaPtrMLuWlpLasM4BH-9" style="edgeStyle=orthogonalEdgeStyle;rounded=0;orthogonalLoop=1;jettySize=auto;html=1;exitX=0.5;exitY=1;exitDx=0;exitDy=0;" parent="1" source="FiCaPtrMLuWlpLasM4BH-4" target="FiCaPtrMLuWlpLasM4BH-5" edge="1">
          <mxGeometry relative="1" as="geometry" />
        </mxCell>
        <mxCell id="FiCaPtrMLuWlpLasM4BH-4" value="Generate json -web token" style="rounded=1;whiteSpace=wrap;html=1;" parent="1" vertex="1">
          <mxGeometry x="40" y="260" width="120" height="60" as="geometry" />
        </mxCell>
        <mxCell id="FiCaPtrMLuWlpLasM4BH-7" value="GET : REST" style="edgeStyle=orthogonalEdgeStyle;rounded=0;orthogonalLoop=1;jettySize=auto;html=1;exitX=1;exitY=0.5;exitDx=0;exitDy=0;" parent="1" source="FiCaPtrMLuWlpLasM4BH-5" target="FiCaPtrMLuWlpLasM4BH-6" edge="1">
          <mxGeometry relative="1" as="geometry" />
        </mxCell>
        <mxCell id="FiCaPtrMLuWlpLasM4BH-47" style="edgeStyle=orthogonalEdgeStyle;rounded=0;orthogonalLoop=1;jettySize=auto;html=1;exitX=0.5;exitY=1;exitDx=0;exitDy=0;entryX=0.5;entryY=0;entryDx=0;entryDy=0;entryPerimeter=0;" parent="1" source="FiCaPtrMLuWlpLasM4BH-5" target="FiCaPtrMLuWlpLasM4BH-33" edge="1">
          <mxGeometry relative="1" as="geometry" />
        </mxCell>
        <mxCell id="FiCaPtrMLuWlpLasM4BH-5" value="Baue request zusammen" style="rounded=1;whiteSpace=wrap;html=1;" parent="1" vertex="1">
          <mxGeometry x="-255" y="380" width="120" height="60" as="geometry" />
        </mxCell>
        <mxCell id="FiCaPtrMLuWlpLasM4BH-18" style="edgeStyle=orthogonalEdgeStyle;rounded=0;orthogonalLoop=1;jettySize=auto;html=1;exitX=0.5;exitY=1;exitDx=0;exitDy=0;" parent="1" source="FiCaPtrMLuWlpLasM4BH-6" target="FiCaPtrMLuWlpLasM4BH-12" edge="1">
          <mxGeometry relative="1" as="geometry" />
        </mxCell>
        <mxCell id="FiCaPtrMLuWlpLasM4BH-6" value="starte process" style="rounded=1;whiteSpace=wrap;html=1;" parent="1" vertex="1">
          <mxGeometry x="400" y="380" width="120" height="60" as="geometry" />
        </mxCell>
        <mxCell id="FiCaPtrMLuWlpLasM4BH-17" value="GET" style="edgeStyle=orthogonalEdgeStyle;rounded=0;orthogonalLoop=1;jettySize=auto;html=1;exitX=1;exitY=0.5;exitDx=0;exitDy=0;" parent="1" source="FiCaPtrMLuWlpLasM4BH-12" target="FiCaPtrMLuWlpLasM4BH-13" edge="1">
          <mxGeometry relative="1" as="geometry" />
        </mxCell>
        <mxCell id="FiCaPtrMLuWlpLasM4BH-22" style="edgeStyle=orthogonalEdgeStyle;rounded=0;orthogonalLoop=1;jettySize=auto;html=1;exitX=0.5;exitY=1;exitDx=0;exitDy=0;entryX=0.5;entryY=0;entryDx=0;entryDy=0;" parent="1" source="FiCaPtrMLuWlpLasM4BH-12" target="FiCaPtrMLuWlpLasM4BH-21" edge="1">
          <mxGeometry relative="1" as="geometry" />
        </mxCell>
        <mxCell id="FiCaPtrMLuWlpLasM4BH-12" value="Hole attachment" style="rounded=1;whiteSpace=wrap;html=1;" parent="1" vertex="1">
          <mxGeometry x="400" y="500" width="120" height="60" as="geometry" />
        </mxCell>
        <mxCell id="FiCaPtrMLuWlpLasM4BH-13" value="Liefere attachment" style="rounded=1;whiteSpace=wrap;html=1;" parent="1" vertex="1">
          <mxGeometry x="650" y="500" width="120" height="60" as="geometry" />
        </mxCell>
        <mxCell id="FiCaPtrMLuWlpLasM4BH-14" value="ELN-Frontend" style="rounded=0;whiteSpace=wrap;html=1;" parent="1" vertex="1">
          <mxGeometry x="-250" y="-50" width="120" height="60" as="geometry" />
        </mxCell>
        <mxCell id="FiCaPtrMLuWlpLasM4BH-15" value="3PA" style="rounded=0;whiteSpace=wrap;html=1;" parent="1" vertex="1">
          <mxGeometry x="390" y="-50" width="120" height="60" as="geometry" />
        </mxCell>
        <mxCell id="FiCaPtrMLuWlpLasM4BH-16" value="public - API" style="rounded=0;whiteSpace=wrap;html=1;" parent="1" vertex="1">
          <mxGeometry x="630" y="-50" width="120" height="60" as="geometry" />
        </mxCell>
        <mxCell id="FiCaPtrMLuWlpLasM4BH-21" value="mache was ..." style="rounded=1;whiteSpace=wrap;html=1;" parent="1" vertex="1">
          <mxGeometry x="400" y="600" width="120" height="60" as="geometry" />
        </mxCell>
        <mxCell id="FiCaPtrMLuWlpLasM4BH-23" value="save as file" style="rounded=1;whiteSpace=wrap;html=1;" parent="1" vertex="1">
          <mxGeometry x="400" y="680" width="120" height="60" as="geometry" />
        </mxCell>
        <mxCell id="FiCaPtrMLuWlpLasM4BH-26" value="POST" style="edgeStyle=orthogonalEdgeStyle;rounded=0;orthogonalLoop=1;jettySize=auto;html=1;exitX=1;exitY=0.5;exitDx=0;exitDy=0;" parent="1" source="FiCaPtrMLuWlpLasM4BH-24" target="FiCaPtrMLuWlpLasM4BH-25" edge="1">
          <mxGeometry relative="1" as="geometry" />
        </mxCell>
        <mxCell id="FiCaPtrMLuWlpLasM4BH-24" value="sende manipuliertes attachment" style="rounded=1;whiteSpace=wrap;html=1;" parent="1" vertex="1">
          <mxGeometry x="400" y="770" width="120" height="60" as="geometry" />
        </mxCell>
        <mxCell id="FiCaPtrMLuWlpLasM4BH-25" value="Liefere attachment" style="rounded=1;whiteSpace=wrap;html=1;" parent="1" vertex="1">
          <mxGeometry x="630" y="770" width="120" height="60" as="geometry" />
        </mxCell>
        <mxCell id="FiCaPtrMLuWlpLasM4BH-27" value="&lt;div&gt;Token&lt;/div&gt;&lt;div&gt;+&lt;/div&gt;&lt;div&gt;File&lt;br&gt;&lt;/div&gt;" style="rounded=0;whiteSpace=wrap;html=1;fillColor=#d5e8d4;strokeColor=#82b366;" parent="1" vertex="1">
          <mxGeometry x="550" y="730" width="60" height="50" as="geometry" />
        </mxCell>
        <mxCell id="FiCaPtrMLuWlpLasM4BH-28" value="&lt;div&gt;Token&lt;/div&gt;" style="rounded=0;whiteSpace=wrap;html=1;fillColor=#d5e8d4;strokeColor=#82b366;" parent="1" vertex="1">
          <mxGeometry x="560" y="480" width="50" height="30" as="geometry" />
        </mxCell>
        <mxCell id="FiCaPtrMLuWlpLasM4BH-29" value="&lt;div&gt;Token&lt;/div&gt;" style="rounded=0;whiteSpace=wrap;html=1;fillColor=#d5e8d4;strokeColor=#82b366;" parent="1" vertex="1">
          <mxGeometry x="250" y="360" width="50" height="30" as="geometry" />
        </mxCell>
        <mxCell id="FiCaPtrMLuWlpLasM4BH-31" value="&lt;div&gt;user_id&lt;/div&gt;&lt;div&gt;attachment_id&lt;br&gt;&lt;/div&gt;" style="shape=callout;whiteSpace=wrap;html=1;perimeter=calloutPerimeter;" parent="1" vertex="1">
          <mxGeometry x="240" y="270" width="120" height="80" as="geometry" />
        </mxCell>
        <mxCell id="FiCaPtrMLuWlpLasM4BH-33" value="" style="verticalLabelPosition=bottom;verticalAlign=top;html=1;shape=mxgraph.flowchart.on-page_reference;fillColor=#1F1F1F;" parent="1" vertex="1">
          <mxGeometry x="-210" y="530" width="30" height="30" as="geometry" />
        </mxCell>
        <mxCell id="FiCaPtrMLuWlpLasM4BH-34" value="" style="verticalLabelPosition=bottom;verticalAlign=top;html=1;shape=mxgraph.flowchart.on-page_reference;fillColor=#FFFFFF;" parent="1" vertex="1">
          <mxGeometry x="-202.5" y="536.25" width="15" height="17.5" as="geometry" />
        </mxCell>
        <mxCell id="FiCaPtrMLuWlpLasM4BH-42" value="REST: GET" style="edgeStyle=orthogonalEdgeStyle;rounded=0;orthogonalLoop=1;jettySize=auto;html=1;exitX=1;exitY=0.5;exitDx=0;exitDy=0;" parent="1" source="FiCaPtrMLuWlpLasM4BH-41" target="FiCaPtrMLuWlpLasM4BH-4" edge="1">
          <mxGeometry relative="1" as="geometry" />
        </mxCell>
        <mxCell id="FiCaPtrMLuWlpLasM4BH-41" value="Hole WebToken" style="rounded=1;whiteSpace=wrap;html=1;" parent="1" vertex="1">
          <mxGeometry x="-250" y="260" width="120" height="60" as="geometry" />
        </mxCell>
        <mxCell id="FiCaPtrMLuWlpLasM4BH-44" value="ELN-Backend" style="rounded=0;whiteSpace=wrap;html=1;" parent="1" vertex="1">
          <mxGeometry x="30" y="-50" width="120" height="60" as="geometry" />
        </mxCell>
      </root>
    </mxGraphModel>
  </diagram>
</mxfile>
